<svg width="184" height="76" viewBox="0 0 184 76" fill="none" xmlns="http://www.w3.org/2000/svg">
<path d="M4.6875 6.14062C6.85938 6.14062 8.51562 7.54688 8.53125 9.54688C8.51562 11.2734 7.29688 12.5469 5.57812 12.875V14.9531C6.75 14.8984 7.92969 14.8047 9.03125 14.6562L9.15625 15.9531C6.20312 16.4844 2.96875 16.5 0.546875 16.4688L0.296875 15.0469C1.35938 15.0469 2.57812 15.0469 3.84375 15.0156V12.875C2.07031 12.5781 0.84375 11.2969 0.859375 9.54688C0.84375 7.54688 2.46875 6.14062 4.6875 6.14062ZM4.6875 7.60938C3.45312 7.625 2.54688 8.35938 2.54688 9.54688C2.54688 10.7344 3.45312 11.4844 4.6875 11.4688C5.90625 11.4844 6.8125 10.7344 6.8125 9.54688C6.8125 8.35938 5.90625 7.625 4.6875 7.60938ZM11.5781 5.26562V10.9062H13.625V12.375H11.5781V19.3906H9.84375V5.26562H11.5781ZM25.4456 11.8906V13.2812H15.5394V6.5H25.3363V7.90625H17.2581V11.8906H25.4456ZM26.8831 16.1562V17.5938H13.9769V16.1562H26.8831ZM28.3288 13.6875C28.3288 10.75 29.2038 8.29688 30.6725 6.20312H32.5475C31.4694 7.75 30.3913 10.8906 30.3913 13.6875C30.3913 16.4844 31.4694 19.625 32.5475 21.1875H30.6725C29.2038 19.0781 28.3288 16.6406 28.3288 13.6875ZM45.3369 5.26562V19.3906H43.6494V12.1875H42.1338V18.7344H40.5244V5.59375H42.1338V10.7812H43.6494V5.26562H45.3369ZM39.4619 6.9375C39.4463 10.8281 38.415 14.1875 34.165 16.5938L33.1494 15.3594C35.1103 14.2578 36.3134 12.9688 37.0088 11.4844L33.4463 11.875L33.2275 10.3906L37.4775 10.1406C37.6259 9.57031 37.7197 8.96875 37.7744 8.34375H33.9619V6.9375H39.4619ZM58.3919 5.26562V19.3906H56.6575V5.26562H58.3919ZM52.0794 9.75C52.0794 11.9062 53.3919 14.2031 55.6731 15.1562L54.72 16.4844C53.095 15.8047 51.8841 14.3906 51.2356 12.6875C50.6028 14.4922 49.3841 16 47.7356 16.7188L46.7981 15.375C49.0481 14.375 50.345 12 50.345 9.75V9.01562H47.2356V7.625H50.345V5.5625H52.0638V7.625H55.1106V9.01562H52.0794V9.75ZM65.9156 6.89062V8.26562H62.2906V10.6875H65.3219V12.0312H62.2906V14.7656C63.9703 14.75 65.1266 14.6719 66.5094 14.4375L66.6656 15.8281C65.0406 16.1406 63.6969 16.1719 61.5563 16.1719H60.6344V6.89062H65.9156ZM72.3531 5.26562V19.3906H70.6656V5.26562H72.3531ZM69.3844 5.54688V18.7031H67.7594V11.8906H66.0094V10.4844H67.7594V5.54688H69.3844ZM85.4238 5.26562V19.4062H83.6738V5.26562H85.4238ZM77.8144 6.29688C79.9394 6.29688 81.4863 8.23438 81.5019 11.2812C81.4863 14.3594 79.9394 16.2812 77.8144 16.2812C75.6738 16.2812 74.1269 14.3594 74.1269 11.2812C74.1269 8.23438 75.6738 6.29688 77.8144 6.29688ZM77.8144 7.85938C76.6113 7.85938 75.7988 9.125 75.7988 11.2812C75.7988 13.4531 76.6113 14.7188 77.8144 14.7188C79.0019 14.7188 79.8144 13.4531 79.8144 11.2812C79.8144 9.125 79.0019 7.85938 77.8144 7.85938ZM90.5725 5.51562V6.625H96.6663V5.51562H98.385V10.2344H88.8538V5.51562H90.5725ZM90.5725 8.92188H96.6663V7.89062H90.5725V8.92188ZM100.057 11.1406V12.5H87.1819V11.1406H100.057ZM98.4475 13.5V16.9062H90.4163V17.9375H98.8381V19.2656H88.7131V15.6875H96.7444V14.7812H88.6975V13.5H98.4475ZM104.893 13.6875C104.893 16.6406 104.018 19.0781 102.549 21.1875H100.674C101.753 19.625 102.831 16.4844 102.831 13.6875C102.831 10.8906 101.753 7.75 100.674 6.20312H102.549C104.018 8.29688 104.893 10.75 104.893 13.6875Z" fill="#343E4C"/>
</svg>
