<svg width="32" height="32" viewBox="0 0 32 32" fill="none" xmlns="http://www.w3.org/2000/svg">
<path d="M18.8025 13.3166C19.0672 12.6372 20.0285 12.6372 20.2932 13.3166L21.6709 16.8517C21.7514 17.0582 21.9139 17.2221 22.1197 17.3043L25.6385 18.7088C26.3098 18.9767 26.3098 19.9268 25.6385 20.1948L22.1197 21.5993C21.9139 21.6814 21.7514 21.8453 21.6709 22.0518L20.2932 25.587C20.0285 26.2663 19.0672 26.2663 18.8025 25.587L17.4248 22.0518C17.3443 21.8453 17.1818 21.6814 16.976 21.5993L13.4572 20.1948C12.7859 19.9268 12.7859 18.9767 13.4572 18.7088L16.976 17.3043C17.1818 17.2221 17.3443 17.0582 17.4248 16.8517L18.8025 13.3166Z" fill="#C5C5C5"/>
<path d="M9.90506 5.93506C10.1036 5.42554 10.8246 5.42554 11.0232 5.93506L12.0564 8.58643C12.1168 8.74131 12.2387 8.86421 12.393 8.92582L15.0321 9.97921C15.5355 10.1801 15.5355 10.8928 15.0321 11.0937L12.393 12.1471C12.2387 12.2087 12.1168 12.3316 12.0564 12.4865L11.0232 15.1379C10.8246 15.6474 10.1036 15.6474 9.90506 15.1379L8.87182 12.4865C8.81147 12.3316 8.68957 12.2087 8.5352 12.1471L5.89611 11.0937C5.39267 10.8928 5.39267 10.1801 5.89611 9.97921L8.53519 8.92582C8.68957 8.86421 8.81147 8.74131 8.87182 8.58643L9.90506 5.93506Z" fill="#C5C5C5"/>
</svg>
