<svg width="22" height="22" viewBox="0 0 22 22" fill="none" xmlns="http://www.w3.org/2000/svg">
<path d="M18.4606 7.47574L19.6696 6.2668C20.2053 5.73107 20.4997 5.01913 20.4997 4.2624C20.4997 3.50567 20.2043 2.79374 19.6696 2.25801L18.2417 0.830073C17.7069 0.294343 16.995 0 16.2373 0C15.4805 0 14.7686 0.29536 14.2329 0.830073L13.0239 2.03902L18.4606 7.47574Z" fill="#1A1A1A"/>
<path d="M11.8729 3.19144L1.73686 13.3275C1.58409 13.4802 1.49854 13.688 1.49854 13.9039V18.1888C1.49854 18.4048 1.58409 18.6125 1.73686 18.7653C1.88964 18.9181 2.09741 19.0036 2.31332 19.0036H6.59822C6.81414 19.0036 7.02192 18.917 7.17468 18.7643L17.3107 8.62823L11.8739 3.19141L11.8729 3.19144Z" fill="#1A1A1A"/>
<path d="M21.1846 21.8972H0.814794C0.364611 21.8972 0 21.5326 0 21.0824C0 20.6322 0.364611 20.2676 0.814794 20.2676H21.1846C21.6348 20.2676 21.9994 20.6322 21.9994 21.0824C21.9994 21.5326 21.6348 21.8972 21.1846 21.8972Z" fill="#1A1A1A"/>
</svg>
