<svg width="22" height="22" viewBox="0 0 22 22" fill="none" xmlns="http://www.w3.org/2000/svg">
<path d="M18.4607 7.47574L19.6697 6.2668C20.2054 5.73107 20.4997 5.01913 20.4997 4.2624C20.4997 3.50567 20.2044 2.79374 19.6697 2.25801L18.2417 0.830073C17.707 0.294343 16.9951 0 16.2373 0C15.4806 0 14.7687 0.29536 14.2329 0.830073L13.024 2.03902L18.4607 7.47574Z" fill="#B2B2B2"/>
<path d="M11.8727 3.19144L1.73662 13.3275C1.58384 13.4802 1.49829 13.688 1.49829 13.9039V18.1888C1.49829 18.4048 1.58384 18.6125 1.73662 18.7653C1.88939 18.9181 2.09716 19.0036 2.31307 19.0036H6.59798C6.8139 19.0036 7.02167 18.917 7.17444 18.7643L17.3105 8.62823L11.8736 3.19141L11.8727 3.19144Z" fill="#B2B2B2"/>
<path d="M21.1846 21.8972H0.814794C0.364611 21.8972 0 21.5326 0 21.0824C0 20.6322 0.364611 20.2676 0.814794 20.2676H21.1846C21.6348 20.2676 21.9994 20.6322 21.9994 21.0824C21.9994 21.5326 21.6348 21.8972 21.1846 21.8972Z" fill="#B2B2B2"/>
</svg>
