<svg width="23" height="23" viewBox="0 0 23 23" fill="none" xmlns="http://www.w3.org/2000/svg">
  <g id="ico">
    <path id="Star 1" d="M14.3025 8.81608C14.5672 8.13672 15.5285 8.13672 15.7932 8.81608L17.1709 12.3512C17.2514 12.5577 17.4139 12.7216 17.6197 12.8038L21.1385 14.2083C21.8098 14.4762 21.8098 15.4264 21.1385 15.6943L17.6197 17.0988C17.4139 17.1809 17.2514 17.3448 17.1709 17.5513L15.7932 21.0865C15.5285 21.7658 14.5672 21.7658 14.3025 21.0865L12.9248 17.5513C12.8443 17.3448 12.6818 17.1809 12.476 17.0988L8.95718 15.6943C8.28593 15.4264 8.28593 14.4762 8.95718 14.2083L12.476 12.8038C12.6818 12.7216 12.8443 12.5577 12.9248 12.3512L14.3025 8.81608Z" fill="#5C646F"/>
    <path id="Star 1_2" d="M5.40506 1.43457C5.60362 0.925049 6.3246 0.92505 6.52316 1.43457L7.5564 4.08595C7.61675 4.24082 7.73865 4.36372 7.89303 4.42534L10.5321 5.47872C11.0355 5.67966 11.0355 6.39227 10.5321 6.59322L7.89303 7.6466C7.73865 7.70822 7.61675 7.83112 7.5564 7.98599L6.52316 10.6374C6.3246 11.1469 5.60362 11.1469 5.40506 10.6374L4.37181 7.98599C4.31146 7.83112 4.18956 7.70822 4.03518 7.6466L1.39611 6.59322C0.892695 6.39227 0.892695 5.67966 1.39611 5.47872L4.03518 4.42534C4.18956 4.36372 4.31146 4.24082 4.37181 4.08595L5.40506 1.43457Z" fill="#5C646F"/>
  </g>
</svg>
