<svg width="18" height="23" viewBox="0 0 18 23" fill="none" xmlns="http://www.w3.org/2000/svg">
<path d="M13.0909 1.36753e-05C13.1986 -0.000608873 13.3053 0.0200298 13.405 0.0607462C13.5047 0.101463 13.5953 0.161456 13.6718 0.237286L17.7627 4.32819C17.8385 4.40464 17.8985 4.49531 17.9392 4.59499C17.98 4.69468 18.0006 4.80142 18 4.9091H14.7272C14.2933 4.9091 13.877 4.73669 13.5702 4.42982C13.2633 4.12294 13.0909 3.70673 13.0909 3.27274V1.36753e-05ZM14.7272 6.54546C13.8593 6.54546 13.0268 6.20065 12.4131 5.5869C11.7993 4.97314 11.4545 4.14072 11.4545 3.27274V1.36753e-05H3.27272C2.40474 1.36753e-05 1.57231 0.344817 0.958558 0.958572C0.344803 1.57233 0 2.40476 0 3.27274V19.6363C0 20.5043 0.344803 21.3368 0.958558 21.9505C1.57231 22.5643 2.40474 22.9091 3.27272 22.9091H14.7272C15.5952 22.9091 16.4277 22.5643 17.0414 21.9505C17.6552 21.3368 18 20.5043 18 19.6363V6.54546H14.7272Z" fill="#1A1A1A"/>
</svg>
