<svg width="18" height="18" viewBox="0 0 18 18" fill="none" xmlns="http://www.w3.org/2000/svg">
<path d="M10.7273 6.61206C10.9259 6.10254 11.6469 6.10254 11.8454 6.61206L12.8787 9.26344C12.939 9.41831 13.0609 9.54121 13.2153 9.60283L15.8544 10.6562C16.3578 10.8572 16.3578 11.5698 15.8544 11.7707L13.2153 12.8241C13.0609 12.8857 12.939 13.0086 12.8787 13.1635L11.8454 15.8149C11.6469 16.3244 10.9259 16.3244 10.7273 15.8149L9.69409 13.1635C9.63373 13.0086 9.51184 12.8857 9.35746 12.8241L6.71837 11.7707C6.21494 11.5698 6.21494 10.8572 6.71837 10.6562L9.35746 9.60283C9.51184 9.54121 9.63373 9.41831 9.69409 9.26344L10.7273 6.61206Z" fill="#C5C5C5"/>
<path d="M4.05379 1.07593C4.20271 0.693788 4.74345 0.693787 4.89237 1.07593L5.6673 3.06446C5.71256 3.18061 5.80399 3.27279 5.91977 3.319L7.89909 4.10904C8.27666 4.25975 8.27666 4.79421 7.89909 4.94491L5.91977 5.73495C5.80399 5.78116 5.71256 5.87334 5.6673 5.98949L4.89237 7.97802C4.74345 8.36016 4.20271 8.36016 4.0538 7.97803L3.27887 5.98949C3.2336 5.87334 3.14218 5.78116 3.0264 5.73495L1.04708 4.94491C0.669503 4.79421 0.669503 4.25975 1.04708 4.10904L3.0264 3.319C3.14218 3.27279 3.2336 3.18061 3.27887 3.06446L4.05379 1.07593Z" fill="#C5C5C5"/>
</svg>
