<svg width="160" height="48" viewBox="0 0 160 48" fill="none" xmlns="http://www.w3.org/2000/svg">
<path d="M52.5806 15.2737L54.7741 9.26529L74.3252 9.16992L68.889 26.0506H58.6843L56.6816 31.6775L67.84 29.7701L65.8372 36.0645L46 38.9257L52.1991 19.8515H63.0714L64.502 15.2737H52.5806Z" fill="#2B2B2B"/>
<path d="M85.0072 9.26562H76.9007L67.1729 38.7353H75.7562L85.0072 9.26562Z" fill="#2B2B2B"/>
<path d="M80.4294 30.4373L87.5823 9.07422H114L112.093 14.7588H93.8768L93.2092 16.7759L110.948 16.9593L109.136 22.4605H91.3971L90.7295 24.7527L110.471 24.8955L108.659 30.4884L80.4294 30.4373Z" fill="#2B2B2B"/>
<path d="M77.8534 38.8313L79.7608 33.0137H111.138L109.135 38.8313H77.8534Z" fill="#2B2B2B"/>
</svg>
